<svg
    fill="none"
    height="512"
    viewBox="0 0 512 512"
    width="512"
    xmlns="http://www.w3.org/2000/svg">
    <mask
        height="512"
        id="mask0_23_8"
        maskUnits="userSpaceOnUse"
        style="mask-type:alpha"
        width="512"
        x="0"
        y="0">
        <rect
            fill="#D9D9D9"
            height="512"
            rx="80"
            width="512" />
    </mask>
    <g mask="url(#mask0_23_8)">
        <rect
            fill="url(#paint0_linear_23_8)"
            height="512"
            width="512" />
        <path
            d="M512 280.012V512L-6.10352e-05 511.367V329C49.4881 302.697 97.816 286.45 144 276.921C167.428 272.088 190.304 268.984 212.5 267.173C346.591 256.235 455.861 292.511 512 280.012Z"
            fill="url(#paint1_linear_23_8)" />
        <path
            d="M122.5 120.301C122.5 105.954 133.272 93.8944 147.528 92.2814L248.489 80.8589C254.892 80.1345 260.5 85.1437 260.5 91.5876C260.5 123.019 235.019 148.5 203.588 148.5H150.699C135.125 148.5 122.5 135.875 122.5 120.301Z"
            fill="url(#paint2_linear_23_8)" />
        <circle
            cx="150.25"
            cy="120.25"
            fill="url(#paint3_linear_23_8)"
            r="28.25" />
        <circle
            cx="158"
            cy="110.5"
            fill="url(#paint4_linear_23_8)"
            r="10" />
    </g>
    <defs>
        <linearGradient
            gradientUnits="userSpaceOnUse"
            id="paint0_linear_23_8"
            x1="0"
            x2="512"
            y1="0"
            y2="443.5">
            <stop stop-color="#2B2B2B" />
            <stop
                offset="1"
                stop-color="#050505" />
        </linearGradient>
        <linearGradient
            gradientUnits="userSpaceOnUse"
            id="paint1_linear_23_8"
            x1="86.5001"
            x2="549.546"
            y1="229.131"
            y2="421.735">
            <stop stop-color="#F5F5F5" />
            <stop
                offset="1"
                stop-color="#B5B5B5" />
        </linearGradient>
        <linearGradient
            gradientUnits="userSpaceOnUse"
            id="paint2_linear_23_8"
            x1="122.5"
            x2="260.5"
            y1="79.5"
            y2="148.5">
            <stop stop-color="white" />
            <stop
                offset="1"
                stop-color="#BABABA" />
        </linearGradient>
        <linearGradient
            gradientUnits="userSpaceOnUse"
            id="paint3_linear_23_8"
            x1="122"
            x2="178.5"
            y1="92"
            y2="148.5">
            <stop stop-color="#1A1A1A" />
            <stop offset="1" />
        </linearGradient>
        <linearGradient
            gradientUnits="userSpaceOnUse"
            id="paint4_linear_23_8"
            x1="148"
            x2="168"
            y1="100.5"
            y2="120.5">
            <stop stop-color="#FCFCFC" />
            <stop
                offset="1"
                stop-color="#BABABA" />
        </linearGradient>
    </defs>
</svg>